<?xml version="1.0" encoding="utf-8" standalone="no"?>
<!-- Creator: Esri ArcMap 10.3.1.4959 -->
<!DOCTYPE svg PUBLIC "-//W3C//DTD SVG 1.1//EN"  "http://www.w3.org/Graphics/SVG/1.1/DTD/svg11.dtd">
<svg width="51.76063pt" height="51.76063pt" viewBox="0 0 51.76063 51.76063" enable-background="new 0 0 51.76063 51.76063"
	version="1.1" xmlns="http://www.w3.org/2000/svg" xmlns:xlink="http://www.w3.org/1999/xlink" >
	<g id="Export_PNG_96dpi_24bit_weiß_weiß">
		<g id="UNTERKUNFT.ICON">
			<clipPath id="SVG_CP_1">
				<path d="M0.07194,51.73728L0.07194,0L51.65439,0L51.65439,51.73728L0.07194,51.73728z"/>
			</clipPath>
			<path clip-path="url(#SVG_CP_1)" fill="#F0FAE6" fill-rule="evenodd" stroke="none" d="M0.79136,9.22336L0.79136,42.80215L0.93525,44.60359
				L1.3669,46.18885L2.08632,47.63L3.09351,48.85498L4.31652,49.79173L5.68342,50.5123L7.33809,50.94465L9.0647,51.08876L42.73357,51.08876
				L44.46018,50.94465L46.11485,50.5123L47.48175,49.79173L48.70476,48.85498L49.71195,47.63L50.43137,46.18885L50.86302,44.60359
				L51.00691,42.80215L51.00691,9.22336L50.86302,7.42192L50.43137,5.83666L49.71195,4.46757L48.70476,3.24259L47.48175,2.23378
				L46.11485,1.51321L44.46018,1.08086L42.73357,0.93675L9.0647,0.93675L7.33809,1.08086L5.68342,1.51321L4.31652,2.23378L3.09351,3.24259
				L2.08632,4.46757L1.3669,5.83666L0.93525,7.42192L0.79136,9.22336z"/>
			<path clip-path="url(#SVG_CP_1)" fill="#149C0A" fill-rule="evenodd" stroke="none" d="M2.87768,10.66451L2.87768,41.361L3.02157,43.01832
				L3.38128,44.53153L4.02875,45.75651L4.89206,46.90943L6.04313,47.77412L7.33809,48.42264L8.77693,48.78292L10.4316,48.92704L
				41.15085,48.92704L42.80552,48.78292L44.24436,48.42264L45.53931,47.77412L46.69039,46.90943L47.55369,45.75651L48.20117,44.53153
				L48.56088,43.01832L48.70476,41.361L48.70476,10.66451L48.56088,9.07924L48.20117,7.56604L47.55369,6.269L46.69039,5.18814L45.53931,4.32345
				L44.24436,3.67493L42.80552,3.24259L41.15085,3.09847L10.4316,3.09847L8.77693,3.24259L7.33809,3.67493L6.04313,4.32345L4.89206,5.18814
				L4.02875,6.269L3.38128,7.56604L3.02157,9.07924L2.87768,10.66451zM8.41722,20.39227L8.41722,18.95112L11.2949,18.95112L11.2949,20.39227
				L11.2949,27.52596L39.92783,27.52596L39.92783,20.39227L39.92783,18.95112L42.80552,18.95112L42.80552,20.39227L42.80552,34.65965
				L42.80552,36.1008L39.92783,36.1008L39.92783,34.65965L39.92783,30.40826L11.2949,30.40826L11.2949,34.65965L11.2949,36.1008
				L8.41722,36.1008L8.41722,34.65965L8.41722,20.39227zM13.59705,21.83342L13.66899,20.96873L13.88481,20.1761L14.31647,19.45552
				L14.82006,18.80701L15.46754,18.23055L16.18696,17.87026L17.05026,17.58203L17.91357,17.50997L18.77687,17.58203L19.56824,17.87026
				L20.28766,18.23055L21.00708,18.80701L21.58261,19.45552L21.94232,20.1761L22.15815,20.96873L22.23009,21.83342L22.15815,22.69811
				L21.94232,23.49074L21.58261,24.21132L21.00708,24.85984L20.28766,25.4363L19.56824,25.79658L18.77687,26.01276L17.91357,26.08481
				L17.05026,26.01276L16.18696,25.79658L15.46754,25.4363L14.82006,24.85984L14.31647,24.21132L13.88481,23.49074L13.66899,22.69811
				L13.59705,21.83342zM24.74806,20.39227L38.48899,20.39227L38.48899,26.08481L24.74806,26.08481L24.74806,20.39227z"/>
		</g>
	</g>
</svg>
